<svg
    xmlns="http://www.w3.org/2000/svg"
    viewBox="0 0 21 19"
    id="vector">
    <path
        id="path"
        d="M 10.5 19 L 9.05 17.7 C 7.367 16.183 5.975 14.875 4.875 13.775 C 3.775 12.675 2.9 11.687 2.25 10.812 C 1.6 9.937 1.146 9.133 0.888 8.4 C 0.629 7.667 0.5 6.917 0.5 6.15 C 0.5 4.583 1.025 3.275 2.075 2.225 C 3.125 1.175 4.433 0.65 6 0.65 C 6.867 0.65 7.692 0.833 8.475 1.2 C 9.258 1.567 9.933 2.083 10.5 2.75 C 11.067 2.083 11.742 1.567 12.525 1.2 C 13.308 0.833 14.133 0.65 15 0.65 C 16.567 0.65 17.875 1.175 18.925 2.225 C 19.975 3.275 20.5 4.583 20.5 6.15 C 20.5 6.917 20.371 7.667 20.113 8.4 C 19.854 9.133 19.4 9.937 18.75 10.812 C 18.1 11.687 17.225 12.675 16.125 13.775 C 15.025 14.875 13.633 16.183 11.95 17.7 L 10.5 19 Z M 10.5 16.3 C 12.1 14.867 13.417 13.637 14.45 12.612 C 15.483 11.587 16.3 10.696 16.9 9.938 C 17.5 9.179 17.917 8.504 18.15 7.912 C 18.383 7.321 18.5 6.733 18.5 6.15 C 18.5 5.15 18.167 4.317 17.5 3.65 C 16.833 2.983 16 2.65 15 2.65 C 14.217 2.65 13.492 2.871 12.825 3.312 C 12.158 3.754 11.7 4.317 11.45 5 L 9.55 5 C 9.3 4.317 8.842 3.754 8.175 3.312 C 7.508 2.871 6.783 2.65 6 2.65 C 5 2.65 4.167 2.983 3.5 3.65 C 2.833 4.317 2.5 5.15 2.5 6.15 C 2.5 6.733 2.617 7.321 2.85 7.912 C 3.083 8.504 3.5 9.179 4.1 9.938 C 4.7 10.696 5.517 11.587 6.55 12.612 C 7.583 13.637 8.9 14.867 10.5 16.3 Z"
        fill="#000000"/>
</svg>
