<svg
    xmlns="http://www.w3.org/2000/svg"
    viewBox="0 0 24 24"
    id="vector">
    <path
        id="path"
        d="M 12 20 L 4 12 L 12 4 L 13.425 5.4 L 7.825 11 L 20 11 L 20 13 L 7.825 13 L 13.425 18.6 L 12 20 Z"
        fill="#0e0940"/>
    <path
        id="path_1"
        d="M 10.55 19.7 L 12 21 L 13.45 19.7 C 15.133 18.183 16.525 16.875 17.625 15.775 C 18.725 14.675 19.6 13.687 20.25 12.812 C 20.9 11.937 21.354 11.133 21.613 10.4 C 21.871 9.667 22 8.917 22 8.15 C 22 6.583 21.475 5.275 20.425 4.225 C 19.375 3.175 18.067 2.65 16.5 2.65 C 15.633 2.65 14.808 2.833 14.025 3.2 C 13.242 3.567 12.567 4.083 12 4.75 C 11.433 4.083 10.758 3.567 9.975 3.2 C 9.192 2.833 8.367 2.65 7.5 2.65 C 5.933 2.65 4.625 3.175 3.575 4.225 C 2.525 5.275 2 6.583 2 8.15 C 2 8.917 2.129 9.667 2.388 10.4 C 2.646 11.133 3.1 11.937 3.75 12.812 C 4.4 13.687 5.275 14.675 6.375 15.775 C 7.475 16.875 8.867 18.183 10.55 19.7 Z"
        fill="#ff4f68"/>
</svg>
