<svg
    xmlns="http://www.w3.org/2000/svg"
    viewBox="0 0 24 24"
    id="vector">
    <path
        id="path"
        d="M 20 6 C 20 6.828 19.328 7.5 18.5 7.5 C 17.672 7.5 17 6.828 17 6 C 17 5.172 17.672 4.5 18.5 4.5 C 19.328 4.5 20 5.172 20 6 Z M 20 12 C 20 12.828 19.328 13.5 18.5 13.5 C 17.672 13.5 17 12.828 17 12 C 17 11.172 17.672 10.5 18.5 10.5 C 19.328 10.5 20 11.172 20 12 Z M 18.5 19.5 C 19.328 19.5 20 18.828 20 18 C 20 17.172 19.328 16.5 18.5 16.5 C 17.672 16.5 17 17.172 17 18 C 17 18.828 17.672 19.5 18.5 19.5 Z"
        fill="#0e0940"
        fill-rule="evenodd"/>
</svg>
