<svg
    xmlns="http://www.w3.org/2000/svg"
    viewBox="0 0 21 20"
    id="vector">
    <path
        id="path"
        d="M 20.5 10 C 20.5 15.523 16.023 20 10.5 20 C 4.977 20 0.5 15.523 0.5 10 C 0.5 4.477 4.977 0 10.5 0 C 16.023 0 20.5 4.477 20.5 10 Z M 10.5 2 C 14.58 2 17.946 5.054 18.438 9 L 14.374 9 C 13.93 7.275 12.364 6 10.5 6 C 8.636 6 7.07 7.275 6.626 9 L 2.562 9 C 3.054 5.054 6.42 2 10.5 2 Z M 2.562 11 C 3.054 14.946 6.42 18 10.5 18 C 14.58 18 17.946 14.946 18.438 11 L 14.374 11 C 13.93 12.725 12.364 14 10.5 14 C 8.636 14 7.07 12.725 6.626 11 L 2.562 11 Z M 8.5 10 C 8.5 11.105 9.395 12 10.5 12 C 11.605 12 12.5 11.105 12.5 10 C 12.5 8.895 11.605 8 10.5 8 C 9.395 8 8.5 8.895 8.5 10 Z"
        fill="#000000"
        fill-rule="evenodd"/>
</svg>
