<svg
    xmlns="http://www.w3.org/2000/svg"
    viewBox="0 0 24 24"
    id="vector">
    <path
        id="path"
        d="M 19.6 21 L 13.3 14.7 C 12.8 15.1 12.225 15.417 11.575 15.65 C 10.925 15.883 10.233 16 9.5 16 C 7.683 16 6.146 15.371 4.888 14.113 C 3.629 12.854 3 11.317 3 9.5 C 3 7.683 3.629 6.146 4.888 4.887 C 6.146 3.629 7.683 3 9.5 3 C 11.317 3 12.854 3.629 14.113 4.887 C 15.371 6.146 16 7.683 16 9.5 C 16 10.233 15.883 10.925 15.65 11.575 C 15.417 12.225 15.1 12.8 14.7 13.3 L 21 19.6 L 19.6 21 Z M 9.5 14 C 10.75 14 11.813 13.563 12.688 12.688 C 13.563 11.813 14 10.75 14 9.5 C 14 8.25 13.563 7.187 12.688 6.312 C 11.813 5.437 10.75 5 9.5 5 C 8.25 5 7.187 5.437 6.312 6.312 C 5.437 7.187 5 8.25 5 9.5 C 5 10.75 5.437 11.813 6.312 12.688 C 7.187 13.563 8.25 14 9.5 14 Z"
        fill="#0e0940"/>
</svg>
